<?xml version="1.0" standalone="no"?><!DOCTYPE svg PUBLIC "-//W3C//DTD SVG 1.1//EN" "http://www.w3.org/Graphics/SVG/1.1/DTD/svg11.dtd"><svg height="1024" node-id="1" sillyvg="true" template-height="1024" template-width="1630" version="1.1" viewBox="0 0 1630 1024" width="1630" xmlns="http://www.w3.org/2000/svg" xmlns:xlink="http://www.w3.org/1999/xlink"><defs node-id="33"><mask height="1.2" id="mask-2" node-id="19" width="1.2" x="-0.1" y="-0.1"><path d="M 320.91 164.22 C 320.91 250.78 250.75 320.95 164.20 320.95 C 77.65 320.95 7.49 250.78 7.49 164.22 C 7.49 77.66 77.65 7.49 164.20 7.49 C 250.75 7.49 320.91 77.66 320.91 164.22 Z" fill="#ffffff" fill-rule="evenodd" node-id="38" stroke="none" target-height="313.46002" target-width="313.42" target-x="7.49" target-y="7.49"></path></mask><mask height="1.2" id="mask-2_3" node-id="19" width="1.2" x="-0.1" y="-0.1"><path d="M 962.53 516.63 L 964.25 525.16 L 965.49 533.60 L 966.26 541.96 L 966.58 550.25 L 966.45 558.48 L 965.88 566.75 L 964.89 574.88 L 963.50 582.88 L 961.69 590.75 L 959.48 598.52 L 956.15 608.06 L 952.25 617.30 L 947.79 626.26 L 942.74 634.94 L 937.15 643.28 L 931.06 651.22 L 924.47 658.77 L 917.35 665.95 L 911.34 671.35 L 905.05 676.42 L 898.48 681.18 L 891.61 685.63 L 884.43 689.77 L 877.08 693.50 L 869.49 696.84 L 861.64 699.81 L 853.51 702.39 L 845.09 704.59 L 836.56 706.31 L 828.12 707.55 L 819.76 708.32 L 811.47 708.64 L 803.24 708.51 L 794.97 707.94 L 786.85 706.95 L 778.85 705.56 L 770.98 703.75 L 763.21 701.54 L 753.66 698.21 L 744.43 694.31 L 735.48 689.84 L 726.79 684.79 L 718.45 679.20 L 710.51 673.11 L 702.96 666.52 L 695.78 659.40 L 690.39 653.39 L 685.31 647.10 L 680.56 640.52 L 676.11 633.65 L 671.97 626.47 L 668.24 619.13 L 664.89 611.54 L 661.93 603.68 L 659.34 595.55 L 657.14 587.13 L 655.43 578.60 L 654.19 570.16 L 653.41 561.80 L 653.09 553.51 L 653.22 545.27 L 653.80 537.00 L 654.78 528.88 L 656.18 520.88 L 657.98 513.01 L 660.19 505.24 L 663.52 495.69 L 667.42 486.45 L 671.89 477.50 L 676.93 468.82 L 682.52 460.48 L 688.61 452.54 L 695.20 444.99 L 702.32 437.81 L 708.33 432.41 L 714.62 427.34 L 721.19 422.58 L 728.07 418.13 L 735.25 413.99 L 742.59 410.26 L 750.18 406.92 L 758.03 403.95 L 766.16 401.36 L 774.58 399.16 L 783.11 397.45 L 791.55 396.21 L 799.91 395.43 L 808.20 395.11 L 816.43 395.25 L 824.70 395.82 L 832.83 396.81 L 840.82 398.20 L 848.69 400.01 L 856.46 402.22 L 866.01 405.55 L 875.25 409.45 L 884.20 413.92 L 892.88 418.97 L 901.22 424.56 L 909.16 430.64 L 916.71 437.24 L 923.89 444.36 L 929.28 450.37 L 934.36 456.66 L 939.12 463.23 L 943.56 470.11 L 947.70 477.29 L 951.43 484.63 L 954.78 492.22 L 957.75 500.07 L 960.33 508.20 L 962.53 516.63 Z" fill="#ffffff" fill-rule="evenodd" node-id="38" stroke="none" target-height="313.53003" target-width="313.49" target-x="653.09" target-y="395.11"></path></mask><mask height="1.2" id="mask-2_4" node-id="19" width="1.2" x="-0.1" y="-0.1"><path d="M 962.53 516.63 L 964.25 525.16 L 965.49 533.60 L 966.26 541.96 L 966.58 550.25 L 966.45 558.48 L 965.88 566.75 L 964.89 574.88 L 963.50 582.88 L 961.69 590.75 L 959.48 598.52 L 956.15 608.06 L 952.25 617.30 L 947.79 626.26 L 942.74 634.94 L 937.15 643.28 L 931.06 651.22 L 924.47 658.77 L 917.35 665.95 L 911.34 671.35 L 905.05 676.42 L 898.48 681.18 L 891.61 685.63 L 884.43 689.77 L 877.08 693.50 L 869.49 696.84 L 861.64 699.81 L 853.51 702.39 L 845.09 704.59 L 836.56 706.31 L 828.12 707.55 L 819.76 708.32 L 811.47 708.64 L 803.24 708.51 L 794.97 707.94 L 786.85 706.95 L 778.85 705.56 L 770.98 703.75 L 763.21 701.54 L 753.66 698.21 L 744.43 694.31 L 735.48 689.84 L 726.79 684.79 L 718.45 679.20 L 710.51 673.11 L 702.96 666.52 L 695.78 659.40 L 690.39 653.39 L 685.31 647.10 L 680.56 640.52 L 676.11 633.65 L 671.97 626.47 L 668.24 619.13 L 664.89 611.54 L 661.93 603.68 L 659.34 595.55 L 657.14 587.13 L 655.43 578.60 L 654.19 570.16 L 653.41 561.80 L 653.09 553.51 L 653.22 545.27 L 653.80 537.00 L 654.78 528.88 L 656.18 520.88 L 657.98 513.01 L 660.19 505.24 L 663.52 495.69 L 667.42 486.45 L 671.89 477.50 L 676.93 468.82 L 682.52 460.48 L 688.61 452.54 L 695.20 444.99 L 702.32 437.81 L 708.33 432.41 L 714.62 427.34 L 721.19 422.58 L 728.07 418.13 L 735.25 413.99 L 742.59 410.26 L 750.18 406.92 L 758.03 403.95 L 766.16 401.36 L 774.58 399.16 L 783.11 397.45 L 791.55 396.21 L 799.91 395.43 L 808.20 395.11 L 816.43 395.25 L 824.70 395.82 L 832.83 396.81 L 840.82 398.20 L 848.69 400.01 L 856.46 402.22 L 866.01 405.55 L 875.25 409.45 L 884.20 413.92 L 892.88 418.97 L 901.22 424.56 L 909.16 430.64 L 916.71 437.24 L 923.89 444.36 L 929.28 450.37 L 934.36 456.66 L 939.12 463.23 L 943.56 470.11 L 947.70 477.29 L 951.43 484.63 L 954.78 492.22 L 957.75 500.07 L 960.33 508.20 L 962.53 516.63 Z" fill="#ffffff" fill-rule="evenodd" node-id="38" stroke="none" target-height="313.53003" target-width="313.49" target-x="653.09" target-y="395.11"></path></mask></defs><g node-id="74"><path d="M 1053.99 512.00 L 1053.75 526.51 L 1053.07 540.91 L 1051.94 555.23 L 1050.36 569.46 L 1048.34 583.61 L 1045.87 597.71 L 1042.97 611.68 L 1039.65 625.51 L 1035.90 639.22 L 1031.73 652.81 L 1027.13 666.27 L 1022.12 679.55 L 1016.71 692.65 L 1010.89 705.60 L 1004.66 718.38 L 998.03 730.95 L 991.02 743.30 L 983.62 755.44 L 975.83 767.37 L 967.63 779.09 L 959.09 790.53 L 950.18 801.71 L 940.89 812.64 L 931.22 823.31 L 921.16 833.73 L 910.77 843.83 L 900.13 853.53 L 889.25 862.85 L 878.10 871.79 L 866.70 880.36 L 855.01 888.58 L 843.12 896.40 L 831.03 903.83 L 818.72 910.86 L 806.19 917.51 L 793.45 923.76 L 780.55 929.60 L 767.48 935.03 L 754.25 940.05 L 740.83 944.66 L 727.29 948.86 L 713.63 952.62 L 699.84 955.95 L 685.92 958.85 L 671.86 961.33 L 657.76 963.36 L 643.58 964.94 L 629.31 966.08 L 614.95 966.77 L 600.49 967.00 L 586.04 966.77 L 571.68 966.08 L 557.41 964.94 L 543.23 963.36 L 529.12 961.33 L 515.07 958.85 L 501.15 955.95 L 487.36 952.62 L 473.70 948.86 L 460.15 944.67 L 446.74 940.05 L 433.50 935.03 L 420.44 929.60 L 407.54 923.76 L 394.80 917.51 L 382.27 910.86 L 369.96 903.83 L 357.86 896.40 L 345.97 888.58 L 334.29 880.36 L 322.88 871.79 L 311.74 862.85 L 300.85 853.53 L 290.22 843.83 L 279.83 833.73 L 269.77 823.31 L 260.10 812.64 L 250.81 801.71 L 241.90 790.53 L 233.35 779.09 L 225.16 767.37 L 217.37 755.44 L 209.97 743.30 L 202.96 730.95 L 196.33 718.38 L 190.10 705.60 L 184.28 692.65 L 178.87 679.55 L 173.86 666.27 L 169.26 652.81 L 165.08 639.22 L 161.34 625.51 L 158.02 611.68 L 155.12 597.71 L 152.65 583.61 L 150.63 569.46 L 149.05 555.23 L 147.92 540.91 L 147.23 526.51 L 147.00 512.00 L 147.23 497.49 L 147.92 483.09 L 149.05 468.77 L 150.63 454.54 L 152.65 440.39 L 155.12 426.29 L 158.02 412.32 L 161.34 398.49 L 165.08 384.78 L 169.26 371.19 L 173.86 357.73 L 178.87 344.45 L 184.28 331.35 L 190.10 318.40 L 196.33 305.62 L 202.96 293.05 L 209.97 280.70 L 217.37 268.56 L 225.16 256.63 L 233.35 244.91 L 241.90 233.47 L 250.81 222.29 L 260.10 211.36 L 269.77 200.69 L 279.83 190.27 L 290.22 180.17 L 300.85 170.47 L 311.74 161.15 L 322.88 152.21 L 334.29 143.64 L 345.97 135.42 L 357.86 127.60 L 369.96 120.17 L 382.27 113.14 L 394.80 106.49 L 407.54 100.24 L 420.44 94.40 L 433.50 88.97 L 446.74 83.95 L 460.15 79.34 L 473.70 75.14 L 487.36 71.38 L 501.15 68.05 L 515.07 65.15 L 529.12 62.67 L 543.23 60.64 L 557.41 59.06 L 571.68 57.92 L 586.04 57.23 L 600.49 57.00 L 614.95 57.23 L 629.31 57.92 L 643.58 59.06 L 657.76 60.64 L 671.86 62.67 L 685.92 65.15 L 699.84 68.05 L 713.63 71.38 L 727.29 75.14 L 740.83 79.34 L 754.25 83.95 L 767.48 88.97 L 780.55 94.40 L 793.45 100.24 L 806.19 106.49 L 818.72 113.14 L 831.03 120.17 L 843.12 127.60 L 855.01 135.42 L 866.70 143.64 L 878.10 152.21 L 889.25 161.15 L 900.13 170.47 L 910.77 180.17 L 921.16 190.27 L 931.22 200.69 L 940.89 211.36 L 950.18 222.29 L 959.09 233.47 L 967.63 244.91 L 975.83 256.63 L 983.62 268.56 L 991.02 280.70 L 998.03 293.05 L 1004.66 305.62 L 1010.89 318.40 L 1016.71 331.35 L 1022.12 344.45 L 1027.13 357.73 L 1031.73 371.19 L 1035.90 384.78 L 1039.65 398.49 L 1042.97 412.32 L 1045.87 426.29 L 1048.34 440.39 L 1050.36 454.54 L 1051.94 468.77 L 1053.07 483.09 L 1053.75 497.49 L 1053.99 512.00 Z" fill="#eff0f9" fill-rule="evenodd" group-id="1" id="椭圆形备份-12" node-id="8" stroke="none" target-height="910" target-width="906.99" target-x="147" target-y="57"></path><g node-id="75"><path d="M 727.29 142.88 L 345.50 179.40 L 338.83 180.27 L 332.39 181.52 L 326.15 183.15 L 320.11 185.14 L 314.25 187.52 L 307.11 191.00 L 300.36 194.96 L 293.99 199.40 L 287.97 204.32 L 282.34 209.69 L 277.17 215.42 L 272.44 221.53 L 268.16 228.03 L 264.39 234.83 L 261.16 241.89 L 258.47 249.23 L 256.30 256.88 L 255.01 263.07 L 254.12 269.37 L 253.63 275.80 L 253.55 282.36 L 253.88 289.08 L 310.61 966.36 L 310.61 966.36 L 808.38 888.73 L 808.38 735.49 L 753.46 539.26 L 788.07 341.03 L 727.29 257.45 L 727.29 142.88 Z" fill="#ffffff" fill-rule="evenodd" group-id="1,2" id="路径-19" node-id="10" stroke="#555555" stroke-linecap="butt" stroke-width="7.8198667" target-height="823.48" target-width="554.83" target-x="253.55" target-y="142.88"></path><path d="M 778.64 747.78 L 785.93 747.55 L 791.38 746.93 L 795.35 746.03 L 798.24 744.92 L 800.42 743.63 L 802.01 742.16 L 803.12 740.51 L 803.85 738.64 L 804.28 736.45 L 804.35 733.87 L 804.02 730.84 L 802.65 724.67 L 800.15 716.61 L 793.59 697.43 L 790.05 686.17 L 786.43 672.89 L 784.31 663.76 L 782.41 653.69 L 780.75 642.62 L 779.56 631.52 L 778.84 619.41 L 778.64 606.20 L 779.03 594.02 L 779.90 581.50 L 781.27 568.61 L 783.00 555.76 L 785.03 542.81 L 787.37 529.74 L 791.22 510.26 L 795.30 491.12 L 803.42 454.27 L 807.09 436.71 L 810.08 420.70 L 811.76 410.14 L 812.93 400.58 L 813.65 391.95 L 813.88 385.31 L 813.74 379.41 L 813.26 374.17 L 812.48 369.53 L 811.49 365.73 L 810.22 362.42 L 808.70 359.56 L 806.94 357.08 L 804.93 354.96 L 802.65 353.18 L 800.01 351.76 L 796.96 350.70 L 793.44 350.02 L 789.36 349.76 L 777.36 350.07 L 765.85 350.95 L 754.81 352.37 L 744.21 354.31 L 734.01 356.76 L 723.80 359.82 L 714.03 363.35 L 704.68 367.35 L 695.74 371.81 L 687.18 376.72 L 678.86 382.17 L 670.95 388.02 L 663.44 394.29 L 656.31 400.99 L 649.55 408.12 L 643.22 415.60 L 637.29 423.46 L 631.75 431.70 L 626.59 440.35 L 621.82 449.42 L 617.57 458.62 L 613.72 468.18 L 610.29 478.09 L 607.27 488.38 L 604.67 499.07 L 602.60 509.71 L 600.97 520.66 L 599.78 531.94 L 599.06 543.57 L 598.81 555.55 L 599.02 567.67 L 599.66 579.28 L 600.70 590.42 L 602.13 601.09 L 603.94 611.33 L 606.11 621.15 L 608.81 631.18 L 611.90 640.73 L 615.36 649.82 L 619.18 658.46 L 623.36 666.69 L 627.91 674.52 L 632.97 682.20 L 638.41 689.43 L 644.23 696.25 L 650.43 702.66 L 657.03 708.68 L 664.04 714.32 L 671.31 719.46 L 679.00 724.20 L 687.12 728.55 L 695.70 732.50 L 704.76 736.05 L 714.34 739.19 L 723.74 741.71 L 733.63 743.82 L 744.03 745.51 L 754.98 746.74 L 766.50 747.50 L 778.64 747.78 Z" fill="#f4f4f4" fill-rule="evenodd" group-id="1,2" id="椭圆形" node-id="11" stroke="none" target-height="398.02002" target-width="215.07" target-x="598.81" target-y="349.76"></path><g node-id="77"><path d="M 920.89 142.88 L 1310.71 180.17 L 1318.52 181.23 L 1326.04 182.82 L 1333.29 184.94 L 1340.30 187.58 L 1347.12 190.74 L 1353.60 194.34 L 1359.76 198.37 L 1365.62 202.85 L 1371.14 207.75 L 1376.26 212.99 L 1380.98 218.58 L 1385.33 224.55 L 1389.23 230.80 L 1392.66 237.31 L 1395.63 244.11 L 1398.13 251.20 L 1400.09 258.43 L 1401.51 265.85 L 1402.38 273.49 L 1402.69 281.36 L 1402.69 966.36 L 1402.69 966.36 L 839.80 888.73 L 920.89 745.25 L 894.72 539.26 L 969.83 356.86 L 920.89 257.45 L 920.89 142.88 Z" fill="#ffffff" fill-rule="evenodd" group-id="1,2,4" id="路径-19备份" node-id="12" stroke="#555555" stroke-linecap="butt" stroke-width="7.8198667" target-height="823.48" target-width="562.88995" target-x="839.8" target-y="142.88"></path></g><g node-id="78"><path d="M 551.88 667.14 L 477.06 676.33 L 480.40 627.37 L 374.37 640.39 L 378.44 585.58 L 449.04 427.66 L 526.35 418.16 L 459.71 570.21 L 484.88 567.12 L 488.27 518.51 L 563.10 509.32 L 559.74 560.81 L 567.94 558.53 L 565.58 613.72 L 555.51 616.10 Z" fill="#3681fd" fill-rule="nonzero" group-id="1,2,5" node-id="54" stroke="none" target-height="258.17" target-width="193.57" target-x="374.37" target-y="418.16"></path></g><g node-id="79"><path d="M 1247.51 684.58 L 1169.23 684.58 L 1178.87 633.38 L 1067.94 633.38 L 1079.07 576.11 L 1171.82 418.71 L 1252.70 418.71 L 1164.77 570.42 L 1191.12 570.42 L 1200.76 519.60 L 1279.05 519.60 Z" fill="#3681fd" fill-rule="nonzero" group-id="1,2,6" id="4" node-id="16" stroke="none" target-height="265.87003" target-width="211.1101" target-x="1067.94" target-y="418.71"></path></g><g node-id="80"><path d="M 969.82 514.94 L 971.62 523.88 L 972.92 532.73 L 973.73 541.49 L 974.07 550.17 L 973.93 558.80 L 973.33 567.46 L 972.30 575.98 L 970.84 584.36 L 968.95 592.61 L 966.63 600.74 L 963.88 608.77 L 960.76 616.59 L 957.26 624.22 L 953.37 631.65 L 949.09 638.90 L 944.44 645.93 L 939.47 652.69 L 934.15 659.18 L 928.50 665.41 L 922.48 671.40 L 916.19 677.05 L 909.60 682.37 L 902.71 687.35 L 895.51 692.02 L 887.99 696.35 L 880.30 700.26 L 872.34 703.77 L 864.12 706.87 L 855.60 709.58 L 846.78 711.89 L 837.84 713.68 L 828.99 714.98 L 820.24 715.80 L 811.55 716.13 L 802.93 715.99 L 794.26 715.39 L 785.75 714.36 L 777.37 712.90 L 769.12 711.00 L 760.98 708.68 L 752.96 705.94 L 745.14 702.82 L 737.52 699.31 L 730.08 695.42 L 722.83 691.14 L 715.80 686.50 L 709.05 681.52 L 702.56 676.21 L 696.32 670.55 L 690.34 664.53 L 684.68 658.23 L 679.37 651.65 L 674.38 644.76 L 669.72 637.56 L 665.38 630.03 L 661.48 622.34 L 657.97 614.39 L 654.86 606.16 L 652.15 597.64 L 649.85 588.81 L 648.05 579.87 L 646.75 571.03 L 645.94 562.27 L 645.60 553.59 L 645.74 544.96 L 646.34 536.29 L 647.37 527.78 L 648.84 519.40 L 650.73 511.15 L 653.05 503.01 L 655.79 494.98 L 658.91 487.16 L 662.42 479.54 L 666.31 472.11 L 670.59 464.85 L 675.23 457.83 L 680.20 451.07 L 685.52 444.58 L 691.18 438.34 L 697.19 432.36 L 703.49 426.71 L 710.07 421.39 L 716.96 416.40 L 724.16 411.74 L 731.68 407.41 L 739.38 403.50 L 747.33 399.99 L 755.55 396.88 L 764.07 394.17 L 772.90 391.87 L 781.84 390.07 L 790.68 388.77 L 799.43 387.96 L 808.12 387.63 L 816.75 387.77 L 825.41 388.37 L 833.92 389.40 L 842.30 390.86 L 850.55 392.75 L 858.69 395.07 L 866.72 397.82 L 874.54 400.94 L 882.16 404.45 L 889.59 408.34 L 896.84 412.62 L 903.87 417.26 L 910.62 422.24 L 917.12 427.55 L 923.35 433.21 L 929.34 439.23 L 934.99 445.52 L 940.30 452.11 L 945.29 459.00 L 949.95 466.20 L 954.29 473.73 L 958.20 481.42 L 961.70 489.37 L 964.81 497.60 L 967.52 506.12 L 969.82 514.94 Z" fill="#555555" fill-rule="evenodd" group-id="1,2,7" id="蒙版" node-id="18" stroke="none" target-height="328.5" target-width="328.47003" target-x="645.6" target-y="387.63"></path><g node-id="85"><path d="M 962.53 516.63 L 964.25 525.16 L 965.49 533.60 L 966.26 541.96 L 966.58 550.25 L 966.45 558.48 L 965.88 566.75 L 964.89 574.88 L 963.50 582.88 L 961.69 590.75 L 959.48 598.52 L 956.15 608.06 L 952.25 617.30 L 947.79 626.26 L 942.74 634.94 L 937.15 643.28 L 931.06 651.22 L 924.47 658.77 L 917.35 665.95 L 911.34 671.35 L 905.05 676.42 L 898.48 681.18 L 891.61 685.63 L 884.43 689.77 L 877.08 693.50 L 869.49 696.84 L 861.64 699.81 L 853.51 702.39 L 845.09 704.59 L 836.56 706.31 L 828.12 707.55 L 819.76 708.32 L 811.47 708.64 L 803.24 708.51 L 794.97 707.94 L 786.85 706.95 L 778.85 705.56 L 770.98 703.75 L 763.21 701.54 L 753.66 698.21 L 744.43 694.31 L 735.48 689.84 L 726.79 684.79 L 718.45 679.20 L 710.51 673.11 L 702.96 666.52 L 695.78 659.40 L 690.39 653.39 L 685.31 647.10 L 680.56 640.52 L 676.11 633.65 L 671.97 626.47 L 668.24 619.13 L 664.89 611.54 L 661.93 603.68 L 659.34 595.55 L 657.14 587.13 L 655.43 578.60 L 654.19 570.16 L 653.41 561.80 L 653.09 553.51 L 653.22 545.27 L 653.80 537.00 L 654.78 528.88 L 656.18 520.88 L 657.98 513.01 L 660.19 505.24 L 663.52 495.69 L 667.42 486.45 L 671.89 477.50 L 676.93 468.82 L 682.52 460.48 L 688.61 452.54 L 695.20 444.99 L 702.32 437.81 L 708.33 432.41 L 714.62 427.34 L 721.19 422.58 L 728.07 418.13 L 735.25 413.99 L 742.59 410.26 L 750.18 406.92 L 758.03 403.95 L 766.16 401.36 L 774.58 399.16 L 783.11 397.45 L 791.55 396.21 L 799.91 395.43 L 808.20 395.11 L 816.43 395.25 L 824.70 395.82 L 832.83 396.81 L 840.82 398.20 L 848.69 400.01 L 856.46 402.22 L 866.01 405.55 L 875.25 409.45 L 884.20 413.92 L 892.88 418.97 L 901.22 424.56 L 909.16 430.64 L 916.71 437.24 L 923.89 444.36 L 929.28 450.37 L 934.36 456.66 L 939.12 463.23 L 943.56 470.11 L 947.70 477.29 L 951.43 484.63 L 954.78 492.22 L 957.75 500.07 L 960.33 508.20 L 962.53 516.63 Z" fill="#ffffff" fill-rule="evenodd" group-id="1,2,7,12" node-id="63" stroke="none" target-height="313.53003" target-width="313.49" target-x="653.09" target-y="395.11"></path></g><g node-id="86"><path d="M 806.31 609.35 L 804.20 613.40 L 802.73 617.32 L 801.86 621.14 L 801.55 624.91 L 801.77 628.66 L 802.54 632.43 L 803.89 636.25 L 805.86 640.16 L 808.53 644.19 L 811.99 648.36 L 816.32 652.70 L 821.10 656.83 L 825.98 660.61 L 830.94 664.05 L 838.54 668.75 L 845.70 672.64 L 852.74 676.03 L 858.66 678.60 L 867.87 682.07 L 871.37 683.20 L 873.15 684.18 L 877.93 686.40 L 881.09 687.60 L 884.88 688.76 L 888.86 689.64 L 893.15 690.17 L 896.06 690.25 L 898.97 690.04 L 901.92 689.54 L 910.68 687.67 L 921.28 685.28 L 926.77 683.79 L 932.04 682.10 L 937.05 680.10 L 941.28 677.89 L 943.84 676.14 L 945.83 674.32 L 947.33 672.40 L 948.16 670.82 L 948.63 669.14 L 948.75 667.35 L 948.51 665.39 L 947.05 660.03 L 945.24 654.91 L 943.08 649.99 L 940.56 645.27 L 937.69 640.74 L 934.54 636.48 L 931.10 632.47 L 927.36 628.71 L 923.35 625.23 L 919.12 622.07 L 914.65 619.21 L 909.93 616.66 L 905.05 614.47 L 900.00 612.65 L 894.76 611.19 L 889.32 610.10 L 826.39 600.02 L 823.72 599.78 L 821.12 599.88 L 818.57 600.33 L 816.10 601.11 L 813.78 602.19 L 811.60 603.57 L 809.61 605.23 L 807.85 607.15 L 806.31 609.35 L 806.31 609.35 L 806.31 609.35 Z" fill="#eae8e8" fill-rule="evenodd" group-id="1,2,7,13" id="路径-21" node-id="22" stroke="none" target-height="90.46997" target-width="147.20001" target-x="801.55" target-y="599.78"></path></g><path d="M 891.09 416.75 L 891.57 420.30 L 891.44 423.69 L 890.71 426.96 L 889.43 430.07 L 887.69 432.86 L 885.45 435.37 L 882.83 437.46 L 879.84 439.07 L 876.44 440.19 L 872.89 440.67 L 869.50 440.54 L 866.23 439.81 L 863.12 438.54 L 860.33 436.79 L 857.82 434.56 L 855.73 431.93 L 854.12 428.95 L 853.00 425.54 L 852.52 421.99 L 852.65 418.60 L 853.38 415.33 L 854.65 412.22 L 856.40 409.43 L 858.63 406.92 L 861.26 404.83 L 864.25 403.22 L 867.65 402.10 L 871.20 401.62 L 874.58 401.75 L 877.86 402.48 L 880.97 403.75 L 883.76 405.50 L 886.27 407.74 L 888.36 410.36 L 889.96 413.35 L 891.09 416.75 Z" fill="#eae8e8" fill-rule="evenodd" group-id="1,2,7,14" node-id="72" stroke="none" target-height="39.05002" target-width="39.049988" target-x="852.52" target-y="401.62"></path></g><path d="M 809.92 481.27 L 809.62 485.56 L 808.80 489.61 L 807.46 493.44 L 805.63 497.07 L 803.40 500.38 L 800.75 503.38 L 797.75 506.03 L 794.44 508.26 L 790.81 510.09 L 786.98 511.43 L 782.94 512.25 L 778.64 512.55 L 774.34 512.25 L 770.30 511.43 L 766.47 510.09 L 762.84 508.26 L 759.53 506.03 L 756.52 503.38 L 753.88 500.38 L 751.65 497.07 L 749.82 493.44 L 748.48 489.61 L 747.66 485.56 L 747.36 481.27 L 747.66 476.97 L 748.48 472.92 L 749.82 469.09 L 751.65 465.46 L 753.88 462.16 L 756.52 459.15 L 759.53 456.50 L 762.84 454.27 L 766.47 452.44 L 770.30 451.11 L 774.34 450.28 L 778.64 449.99 L 782.94 450.28 L 786.98 451.11 L 790.81 452.44 L 794.44 454.27 L 797.75 456.50 L 800.75 459.15 L 803.40 462.16 L 805.63 465.46 L 807.46 469.09 L 808.80 472.92 L 809.62 476.97 L 809.92 481.27 Z" fill="#eae8e8" fill-rule="evenodd" group-id="1,2" id="椭圆形" node-id="24" stroke="none" target-height="62.559998" target-width="62.559998" target-x="747.36" target-y="449.99"></path><path d="M 942.33 467.67 L 952.37 464.69 L 961.46 462.27 L 969.68 460.35 L 977.99 458.73 L 985.18 457.68 L 991.37 457.12 L 997.04 457.00 L 1001.58 457.35 L 1005.18 458.08 L 1007.00 458.69 L 1008.47 459.43 L 1009.70 460.39 L 1010.57 461.56 L 1011.05 462.93 L 1011.16 464.49 L 1010.95 466.12 L 1010.45 467.97 L 1009.03 471.37 L 1006.78 475.33 L 1003.52 479.96 L 999.59 484.78 L 994.70 490.16 L 988.71 496.15 L 982.52 501.88 L 975.43 508.07 L 967.35 514.73 L 956.39 523.27 L 944.06 532.37 L 930.23 542.06 L 916.23 551.43 L 901.08 561.12 L 884.74 571.15 L 868.24 580.87 L 850.86 590.69 L 832.57 600.63 L 814.10 610.24 L 796.24 619.15 L 778.96 627.40 L 761.51 635.34 L 745.00 642.48 L 729.41 648.85 L 713.65 654.90 L 699.21 660.04 L 686.00 664.34 L 675.96 667.32 L 666.87 669.74 L 658.65 671.66 L 650.34 673.28 L 643.15 674.33 L 636.96 674.89 L 631.29 675.01 L 626.75 674.66 L 623.14 673.93 L 621.33 673.32 L 619.86 672.58 L 618.63 671.62 L 617.76 670.45 L 617.28 669.08 L 617.17 667.52 L 617.38 665.89 L 617.88 664.04 L 619.30 660.64 L 621.55 656.68 L 624.81 652.05 L 628.74 647.23 L 633.63 641.85 L 639.62 635.86 L 645.81 630.13 L 652.90 623.94 L 660.98 617.28 L 671.93 608.74 L 684.27 599.64 L 698.10 589.95 L 712.10 580.58 L 727.24 570.89 L 743.59 560.86 L 760.09 551.14 L 777.47 541.32 L 795.76 531.38 L 814.22 521.77 L 832.08 512.86 L 849.36 504.61 L 866.82 496.67 L 883.32 489.53 L 898.92 483.16 L 914.68 477.11 L 929.12 471.97 L 942.33 467.67 Z" fill="none" group-id="1,2,8" id="椭圆形" node-id="25" stroke="#555555" stroke-linecap="butt" stroke-width="7.8198667" target-height="218.01001" target-width="393.99" target-x="617.17" target-y="457"></path><path d="M 657.90 589.66 L 660.58 599.49 L 663.33 607.66 L 666.09 614.36 L 668.86 619.80 L 671.62 624.13 L 674.35 627.53 L 677.06 630.13 L 678.12 630.59 L 680.14 630.67 L 683.72 630.07 L 689.56 628.35 L 698.54 624.96 L 711.66 619.28 L 730.10 610.58 L 755.14 598.02 L 788.24 580.70 L 830.99 557.60 L 885.14 527.62 L 952.58 489.57 L 948.65 480.21 L 944.87 472.42 L 941.26 466.01 L 937.80 460.82 L 934.50 456.68 L 931.35 453.45 L 928.32 451.01 L 925.39 449.24 L 922.55 448.06 L 919.75 447.40 L 917.72 447.48 L 913.86 448.42 L 907.21 450.85 L 896.61 455.49 L 880.68 463.25 L 857.82 475.16 L 826.23 492.38 L 783.90 516.22 L 728.60 548.12 L 657.90 589.66 Z" fill="#ffffff" fill-rule="evenodd" group-id="1,2,9" id="路径-20" node-id="26" stroke="none" target-height="183.26999" target-width="294.68" target-x="657.9" target-y="447.4"></path><path d="M 917.35 257.63 L 1403.00 279.71 L 1402.69 288.03 L 917.04 265.95 L 917.35 257.63 Z M 254.30 319.86 L 735.25 248.86 L 736.52 257.08 L 255.58 328.08 L 254.30 319.86 Z" fill="#5b5b5d" fill-rule="nonzero" group-id="1,2" id="路径-2备份-2" node-id="27" stroke="none" target-height="79.219986" target-width="1148.7" target-x="254.3" target-y="248.86"></path><path d="M 1288.16 217.03 L 1285.59 219.34 L 1283.71 221.44 L 1282.13 223.70 L 1280.81 226.14 L 1279.79 228.71 L 1279.08 231.38 L 1278.68 234.17 L 1278.64 237.42 L 1279.00 240.50 L 1279.76 243.46 L 1280.91 246.30 L 1282.37 248.92 L 1284.16 251.34 L 1286.25 253.52 L 1288.58 255.40 L 1291.19 256.99 L 1293.97 258.24 L 1296.95 259.10 L 1300.15 259.59 L 1301.79 259.65 L 1304.62 259.40 L 1307.50 258.76 L 1310.45 257.71 L 1314.66 255.59 L 1318.66 252.88 L 1322.29 249.70 L 1325.35 246.29 L 1327.11 243.82 L 1328.45 241.42 L 1329.43 239.08 L 1330.31 235.46 L 1330.55 232.10 L 1330.20 228.93 L 1329.31 225.86 L 1327.97 223.03 L 1326.16 220.41 L 1323.98 218.06 L 1321.47 216.01 L 1318.62 214.23 L 1315.56 212.82 L 1312.33 211.79 L 1308.89 211.13 L 1305.41 210.90 L 1301.88 211.12 L 1298.30 211.82 L 1294.85 212.99 L 1291.48 214.71 L 1288.16 217.03 Z M 1322.58 236.75 L 1321.41 239.28 L 1319.49 242.04 L 1317.14 244.62 L 1314.33 247.07 L 1311.27 249.20 L 1308.12 250.86 L 1305.92 251.70 L 1303.84 252.20 L 1301.86 252.40 L 1300.57 252.35 L 1297.69 251.84 L 1295.08 250.88 L 1292.70 249.47 L 1290.58 247.67 L 1288.83 245.57 L 1287.41 243.15 L 1286.43 240.54 L 1285.91 237.76 L 1285.88 234.77 L 1286.38 231.90 L 1287.36 229.20 L 1288.80 226.72 L 1290.67 224.50 L 1292.71 222.66 L 1295.54 220.73 L 1298.39 219.38 L 1301.30 218.54 L 1304.32 218.16 L 1307.23 218.20 L 1310.07 218.66 L 1312.82 219.51 L 1315.30 220.67 L 1317.55 222.14 L 1319.55 223.93 L 1321.12 225.91 L 1322.32 228.10 L 1323.05 230.46 L 1323.25 232.96 L 1322.90 235.66 L 1322.58 236.75 Z" fill="#555555" fill-rule="nonzero" group-id="1,2,10" id="路径-3" node-id="28" stroke="none" target-height="48.75" target-width="51.910034" target-x="1278.64" target-y="210.9"></path><path d="M 1195.10 202.68 L 1192.54 205.00 L 1190.66 207.09 L 1189.07 209.35 L 1187.76 211.79 L 1186.74 214.37 L 1186.03 217.04 L 1185.63 219.82 L 1185.58 223.07 L 1185.95 226.16 L 1186.71 229.12 L 1187.85 231.96 L 1189.32 234.58 L 1191.11 237.00 L 1193.20 239.17 L 1195.53 241.05 L 1198.14 242.65 L 1200.92 243.89 L 1203.90 244.76 L 1207.09 245.25 L 1208.74 245.31 L 1211.57 245.05 L 1214.45 244.41 L 1217.39 243.36 L 1221.61 241.25 L 1225.61 238.53 L 1229.24 235.36 L 1232.30 231.94 L 1234.05 229.47 L 1235.40 227.07 L 1236.38 224.73 L 1237.26 221.11 L 1237.50 217.75 L 1237.15 214.59 L 1236.26 211.52 L 1234.92 208.69 L 1233.11 206.06 L 1230.92 203.72 L 1228.42 201.66 L 1225.57 199.89 L 1222.51 198.48 L 1219.28 197.44 L 1215.84 196.78 L 1212.35 196.55 L 1208.83 196.78 L 1205.25 197.47 L 1201.80 198.64 L 1198.43 200.37 L 1195.10 202.68 Z M 1229.53 222.41 L 1228.36 224.93 L 1226.44 227.69 L 1224.08 230.28 L 1221.28 232.73 L 1218.22 234.85 L 1215.07 236.52 L 1212.87 237.35 L 1210.79 237.86 L 1208.81 238.06 L 1207.52 238.01 L 1204.64 237.49 L 1202.03 236.53 L 1199.65 235.12 L 1197.53 233.32 L 1195.77 231.23 L 1194.36 228.81 L 1193.37 226.19 L 1192.86 223.41 L 1192.83 220.42 L 1193.33 217.56 L 1194.31 214.86 L 1195.74 212.37 L 1197.62 210.16 L 1199.66 208.32 L 1202.48 206.39 L 1205.34 205.03 L 1208.25 204.20 L 1211.27 203.81 L 1214.18 203.86 L 1217.02 204.32 L 1219.77 205.16 L 1222.25 206.32 L 1224.50 207.79 L 1226.50 209.58 L 1228.07 211.56 L 1229.26 213.75 L 1230.00 216.11 L 1230.20 218.61 L 1229.85 221.31 L 1229.53 222.41 Z" fill="#555555" fill-rule="nonzero" group-id="1,2,11" id="路径-3备份-5" node-id="29" stroke="none" target-height="48.759995" target-width="51.920044" target-x="1185.58" target-y="196.55"></path></g><path d="M 806.07 428.39 L 782.43 444.57 L 763.00 259.70 L 845.58 290.97 L 835.97 352.05 L 872.47 344.03 L 801.89 515.15 Z" fill="#3681fd" fill-rule="nonzero" group-id="1,3" id="路径" node-id="31" stroke="none" target-height="255.45001" target-width="109.46997" target-x="763" target-y="259.7"></path></g></svg>